<mxfile host="app.diagrams.net" modified="2023-11-10T15:36:52.698Z" agent="Mozilla/5.0 (Windows NT 10.0; Win64; x64) AppleWebKit/537.36 (KHTML, like Gecko) Chrome/119.0.0.0 Safari/537.36" etag="ykDFQkj2qJORheB5-JcU" version="22.1.0" type="onedrive" pages="5">
  <diagram id="C5RBs43oDa-KdzZeNtuy" name="Class">
    <mxGraphModel dx="946" dy="614" grid="1" gridSize="10" guides="1" tooltips="1" connect="1" arrows="1" fold="1" page="1" pageScale="1" pageWidth="827" pageHeight="1169" math="0" shadow="0">
      <root>
        <mxCell id="WIyWlLk6GJQsqaUBKTNV-0" />
        <mxCell id="WIyWlLk6GJQsqaUBKTNV-1" parent="WIyWlLk6GJQsqaUBKTNV-0" />
        <mxCell id="bWGbBWTuEoOnTKsvkm2v-4" value="Model" style="swimlane;fontStyle=1;align=center;verticalAlign=top;childLayout=stackLayout;horizontal=1;startSize=26;horizontalStack=0;resizeParent=1;resizeParentMax=0;resizeLast=0;collapsible=1;marginBottom=0;" parent="WIyWlLk6GJQsqaUBKTNV-1" vertex="1">
          <mxGeometry x="130" y="560" width="310" height="160" as="geometry" />
        </mxCell>
        <mxCell id="bWGbBWTuEoOnTKsvkm2v-5" value="+ model: AttackClassificationModel" style="text;strokeColor=none;fillColor=none;align=left;verticalAlign=top;spacingLeft=4;spacingRight=4;overflow=hidden;rotatable=0;points=[[0,0.5],[1,0.5]];portConstraint=eastwest;" parent="bWGbBWTuEoOnTKsvkm2v-4" vertex="1">
          <mxGeometry y="26" width="310" height="26" as="geometry" />
        </mxCell>
        <mxCell id="bWGbBWTuEoOnTKsvkm2v-6" value="" style="line;strokeWidth=1;fillColor=none;align=left;verticalAlign=middle;spacingTop=-1;spacingLeft=3;spacingRight=3;rotatable=0;labelPosition=right;points=[];portConstraint=eastwest;" parent="bWGbBWTuEoOnTKsvkm2v-4" vertex="1">
          <mxGeometry y="52" width="310" height="8" as="geometry" />
        </mxCell>
        <mxCell id="bWGbBWTuEoOnTKsvkm2v-7" value="+ GenerateDataObject(torch.Tensor): DataObject&#xa;+ LoadModel(Path): None&#xa;+ train(Dataloader): int" style="text;strokeColor=none;fillColor=none;align=left;verticalAlign=top;spacingLeft=4;spacingRight=4;overflow=hidden;rotatable=0;points=[[0,0.5],[1,0.5]];portConstraint=eastwest;" parent="bWGbBWTuEoOnTKsvkm2v-4" vertex="1">
          <mxGeometry y="60" width="310" height="100" as="geometry" />
        </mxCell>
        <mxCell id="bWGbBWTuEoOnTKsvkm2v-8" value="Interface" style="swimlane;fontStyle=1;align=center;verticalAlign=top;childLayout=stackLayout;horizontal=1;startSize=26;horizontalStack=0;resizeParent=1;resizeParentMax=0;resizeLast=0;collapsible=1;marginBottom=0;" parent="WIyWlLk6GJQsqaUBKTNV-1" vertex="1">
          <mxGeometry x="667" y="560" width="260" height="120" as="geometry" />
        </mxCell>
        <mxCell id="bWGbBWTuEoOnTKsvkm2v-9" value="+ field: type" style="text;strokeColor=none;fillColor=none;align=left;verticalAlign=top;spacingLeft=4;spacingRight=4;overflow=hidden;rotatable=0;points=[[0,0.5],[1,0.5]];portConstraint=eastwest;" parent="bWGbBWTuEoOnTKsvkm2v-8" vertex="1">
          <mxGeometry y="26" width="260" height="26" as="geometry" />
        </mxCell>
        <mxCell id="bWGbBWTuEoOnTKsvkm2v-10" value="" style="line;strokeWidth=1;fillColor=none;align=left;verticalAlign=middle;spacingTop=-1;spacingLeft=3;spacingRight=3;rotatable=0;labelPosition=right;points=[];portConstraint=eastwest;" parent="bWGbBWTuEoOnTKsvkm2v-8" vertex="1">
          <mxGeometry y="52" width="260" height="8" as="geometry" />
        </mxCell>
        <mxCell id="bWGbBWTuEoOnTKsvkm2v-11" value="+ SavePacket(packetBytes): torch.Tensor&#xa;+ UpdateInterface(DataObject): None&#xa;" style="text;strokeColor=none;fillColor=none;align=left;verticalAlign=top;spacingLeft=4;spacingRight=4;overflow=hidden;rotatable=0;points=[[0,0.5],[1,0.5]];portConstraint=eastwest;" parent="bWGbBWTuEoOnTKsvkm2v-8" vertex="1">
          <mxGeometry y="60" width="260" height="60" as="geometry" />
        </mxCell>
        <mxCell id="bWGbBWTuEoOnTKsvkm2v-12" value="DataObject" style="swimlane;fontStyle=1;align=center;verticalAlign=top;childLayout=stackLayout;horizontal=1;startSize=26;horizontalStack=0;resizeParent=1;resizeParentMax=0;resizeLast=0;collapsible=1;marginBottom=0;" parent="WIyWlLk6GJQsqaUBKTNV-1" vertex="1">
          <mxGeometry x="468" y="380" width="170" height="130" as="geometry" />
        </mxCell>
        <mxCell id="bWGbBWTuEoOnTKsvkm2v-13" value="+ packetBytes: np.array&#xa;+ Unknowns: list of dict&#xa;+ Modeluncertanty: float&#xa;" style="text;strokeColor=none;fillColor=none;align=left;verticalAlign=top;spacingLeft=4;spacingRight=4;overflow=hidden;rotatable=0;points=[[0,0.5],[1,0.5]];portConstraint=eastwest;" parent="bWGbBWTuEoOnTKsvkm2v-12" vertex="1">
          <mxGeometry y="26" width="170" height="64" as="geometry" />
        </mxCell>
        <mxCell id="bWGbBWTuEoOnTKsvkm2v-14" value="" style="line;strokeWidth=1;fillColor=none;align=left;verticalAlign=middle;spacingTop=-1;spacingLeft=3;spacingRight=3;rotatable=0;labelPosition=right;points=[];portConstraint=eastwest;" parent="bWGbBWTuEoOnTKsvkm2v-12" vertex="1">
          <mxGeometry y="90" width="170" height="8" as="geometry" />
        </mxCell>
        <mxCell id="bWGbBWTuEoOnTKsvkm2v-15" value="+ method(type): type" style="text;strokeColor=none;fillColor=none;align=left;verticalAlign=top;spacingLeft=4;spacingRight=4;overflow=hidden;rotatable=0;points=[[0,0.5],[1,0.5]];portConstraint=eastwest;" parent="bWGbBWTuEoOnTKsvkm2v-12" vertex="1">
          <mxGeometry y="98" width="170" height="32" as="geometry" />
        </mxCell>
        <mxCell id="bWGbBWTuEoOnTKsvkm2v-16" value="Use" style="endArrow=open;endSize=12;dashed=1;html=1;rounded=0;" parent="WIyWlLk6GJQsqaUBKTNV-1" source="bWGbBWTuEoOnTKsvkm2v-4" target="bWGbBWTuEoOnTKsvkm2v-12" edge="1">
          <mxGeometry width="160" relative="1" as="geometry">
            <mxPoint x="390" y="670" as="sourcePoint" />
            <mxPoint x="550" y="670" as="targetPoint" />
          </mxGeometry>
        </mxCell>
        <mxCell id="bWGbBWTuEoOnTKsvkm2v-17" value="Use" style="endArrow=open;endSize=12;dashed=1;html=1;rounded=0;" parent="WIyWlLk6GJQsqaUBKTNV-1" source="bWGbBWTuEoOnTKsvkm2v-8" target="bWGbBWTuEoOnTKsvkm2v-12" edge="1">
          <mxGeometry width="160" relative="1" as="geometry">
            <mxPoint x="580" y="680" as="sourcePoint" />
            <mxPoint x="740" y="680" as="targetPoint" />
          </mxGeometry>
        </mxCell>
        <mxCell id="bWGbBWTuEoOnTKsvkm2v-19" value="Datacollector" style="swimlane;fontStyle=1;align=center;verticalAlign=top;childLayout=stackLayout;horizontal=1;startSize=26;horizontalStack=0;resizeParent=1;resizeParentMax=0;resizeLast=0;collapsible=1;marginBottom=0;" parent="WIyWlLk6GJQsqaUBKTNV-1" vertex="1">
          <mxGeometry x="460" y="840" width="230" height="86" as="geometry" />
        </mxCell>
        <mxCell id="bWGbBWTuEoOnTKsvkm2v-20" value="+ field: type" style="text;strokeColor=none;fillColor=none;align=left;verticalAlign=top;spacingLeft=4;spacingRight=4;overflow=hidden;rotatable=0;points=[[0,0.5],[1,0.5]];portConstraint=eastwest;" parent="bWGbBWTuEoOnTKsvkm2v-19" vertex="1">
          <mxGeometry y="26" width="230" height="26" as="geometry" />
        </mxCell>
        <mxCell id="bWGbBWTuEoOnTKsvkm2v-21" value="" style="line;strokeWidth=1;fillColor=none;align=left;verticalAlign=middle;spacingTop=-1;spacingLeft=3;spacingRight=3;rotatable=0;labelPosition=right;points=[];portConstraint=eastwest;" parent="bWGbBWTuEoOnTKsvkm2v-19" vertex="1">
          <mxGeometry y="52" width="230" height="8" as="geometry" />
        </mxCell>
        <mxCell id="bWGbBWTuEoOnTKsvkm2v-22" value="+ getUpdate(): DataObject" style="text;strokeColor=none;fillColor=none;align=left;verticalAlign=top;spacingLeft=4;spacingRight=4;overflow=hidden;rotatable=0;points=[[0,0.5],[1,0.5]];portConstraint=eastwest;" parent="bWGbBWTuEoOnTKsvkm2v-19" vertex="1">
          <mxGeometry y="60" width="230" height="26" as="geometry" />
        </mxCell>
        <mxCell id="bWGbBWTuEoOnTKsvkm2v-23" value="" style="endArrow=none;html=1;edgeStyle=orthogonalEdgeStyle;rounded=0;" parent="WIyWlLk6GJQsqaUBKTNV-1" source="bWGbBWTuEoOnTKsvkm2v-4" target="bWGbBWTuEoOnTKsvkm2v-8" edge="1">
          <mxGeometry relative="1" as="geometry">
            <mxPoint x="390" y="650" as="sourcePoint" />
            <mxPoint x="550" y="650" as="targetPoint" />
            <Array as="points">
              <mxPoint x="620" y="640" />
              <mxPoint x="620" y="640" />
            </Array>
          </mxGeometry>
        </mxCell>
        <mxCell id="bWGbBWTuEoOnTKsvkm2v-24" value="1.." style="edgeLabel;resizable=0;html=1;align=left;verticalAlign=bottom;" parent="bWGbBWTuEoOnTKsvkm2v-23" connectable="0" vertex="1">
          <mxGeometry x="-1" relative="1" as="geometry" />
        </mxCell>
        <mxCell id="bWGbBWTuEoOnTKsvkm2v-25" value="1" style="edgeLabel;resizable=0;html=1;align=right;verticalAlign=bottom;" parent="bWGbBWTuEoOnTKsvkm2v-23" connectable="0" vertex="1">
          <mxGeometry x="1" relative="1" as="geometry" />
        </mxCell>
        <mxCell id="bWGbBWTuEoOnTKsvkm2v-26" value="Use" style="endArrow=open;endSize=12;dashed=1;html=1;rounded=0;" parent="WIyWlLk6GJQsqaUBKTNV-1" source="bWGbBWTuEoOnTKsvkm2v-19" target="bWGbBWTuEoOnTKsvkm2v-4" edge="1">
          <mxGeometry width="160" relative="1" as="geometry">
            <mxPoint x="390" y="750" as="sourcePoint" />
            <mxPoint x="550" y="750" as="targetPoint" />
          </mxGeometry>
        </mxCell>
        <mxCell id="bWGbBWTuEoOnTKsvkm2v-27" value="Use" style="endArrow=open;endSize=12;dashed=1;html=1;rounded=0;" parent="WIyWlLk6GJQsqaUBKTNV-1" source="bWGbBWTuEoOnTKsvkm2v-8" target="bWGbBWTuEoOnTKsvkm2v-19" edge="1">
          <mxGeometry width="160" relative="1" as="geometry">
            <mxPoint x="390" y="700" as="sourcePoint" />
            <mxPoint x="550" y="700" as="targetPoint" />
          </mxGeometry>
        </mxCell>
      </root>
    </mxGraphModel>
  </diagram>
  <diagram id="gTxQX7tRFbHUB6IfkMQs" name="Lifeline">
    <mxGraphModel dx="946" dy="613" grid="1" gridSize="10" guides="1" tooltips="1" connect="1" arrows="1" fold="1" page="1" pageScale="1" pageWidth="850" pageHeight="1100" math="0" shadow="0">
      <root>
        <mxCell id="0" />
        <mxCell id="1" parent="0" />
        <mxCell id="bSOOkj2LtoVppGiLShXc-1" value="" style="shape=umlLifeline;participant=umlActor;perimeter=lifelinePerimeter;whiteSpace=wrap;html=1;container=1;collapsible=0;recursiveResize=0;verticalAlign=top;spacingTop=36;outlineConnect=0;" parent="1" vertex="1">
          <mxGeometry x="190" y="70" width="20" height="1160" as="geometry" />
        </mxCell>
        <mxCell id="bSOOkj2LtoVppGiLShXc-6" value="" style="html=1;points=[];perimeter=orthogonalPerimeter;" parent="bSOOkj2LtoVppGiLShXc-1" vertex="1">
          <mxGeometry x="5" y="90" width="10" height="970" as="geometry" />
        </mxCell>
        <mxCell id="bSOOkj2LtoVppGiLShXc-2" value=":Interface" style="shape=umlLifeline;perimeter=lifelinePerimeter;whiteSpace=wrap;html=1;container=1;collapsible=0;recursiveResize=0;outlineConnect=0;" parent="1" vertex="1">
          <mxGeometry x="370" y="60" width="100" height="1350" as="geometry" />
        </mxCell>
        <mxCell id="bSOOkj2LtoVppGiLShXc-8" value="" style="html=1;points=[];perimeter=orthogonalPerimeter;" parent="bSOOkj2LtoVppGiLShXc-2" vertex="1">
          <mxGeometry x="45" y="130" width="10" height="130" as="geometry" />
        </mxCell>
        <mxCell id="bSOOkj2LtoVppGiLShXc-22" value="" style="html=1;points=[];perimeter=orthogonalPerimeter;" parent="bSOOkj2LtoVppGiLShXc-2" vertex="1">
          <mxGeometry x="45" y="330" width="10" height="80" as="geometry" />
        </mxCell>
        <mxCell id="bSOOkj2LtoVppGiLShXc-25" value="" style="html=1;points=[];perimeter=orthogonalPerimeter;" parent="bSOOkj2LtoVppGiLShXc-2" vertex="1">
          <mxGeometry x="45" y="490" width="10" height="190" as="geometry" />
        </mxCell>
        <mxCell id="bSOOkj2LtoVppGiLShXc-41" value="" style="html=1;points=[];perimeter=orthogonalPerimeter;" parent="bSOOkj2LtoVppGiLShXc-2" vertex="1">
          <mxGeometry x="45" y="760" width="10" height="220" as="geometry" />
        </mxCell>
        <mxCell id="zX_Marf303ho5TAtflHa-1" value="" style="html=1;points=[];perimeter=orthogonalPerimeter;" parent="bSOOkj2LtoVppGiLShXc-2" vertex="1">
          <mxGeometry x="45" y="1040" width="10" height="140" as="geometry" />
        </mxCell>
        <mxCell id="zX_Marf303ho5TAtflHa-2" value="Random Update" style="html=1;verticalAlign=bottom;startArrow=oval;endArrow=block;startSize=8;rounded=0;" parent="bSOOkj2LtoVppGiLShXc-2" target="zX_Marf303ho5TAtflHa-1" edge="1">
          <mxGeometry relative="1" as="geometry">
            <mxPoint x="-15" y="1040" as="sourcePoint" />
          </mxGeometry>
        </mxCell>
        <mxCell id="bSOOkj2LtoVppGiLShXc-3" value=":Model" style="shape=umlLifeline;perimeter=lifelinePerimeter;whiteSpace=wrap;html=1;container=1;collapsible=0;recursiveResize=0;outlineConnect=0;" parent="1" vertex="1">
          <mxGeometry x="670" y="60" width="100" height="670" as="geometry" />
        </mxCell>
        <mxCell id="bSOOkj2LtoVppGiLShXc-17" value="" style="html=1;points=[];perimeter=orthogonalPerimeter;" parent="bSOOkj2LtoVppGiLShXc-3" vertex="1">
          <mxGeometry x="45" y="170" width="10" height="45" as="geometry" />
        </mxCell>
        <mxCell id="bSOOkj2LtoVppGiLShXc-39" value="" style="shape=umlDestroy;whiteSpace=wrap;html=1;strokeWidth=3;" parent="bSOOkj2LtoVppGiLShXc-3" vertex="1">
          <mxGeometry x="35" y="640" width="30" height="30" as="geometry" />
        </mxCell>
        <mxCell id="bSOOkj2LtoVppGiLShXc-5" value=":DataCollector" style="shape=umlLifeline;perimeter=lifelinePerimeter;whiteSpace=wrap;html=1;container=1;collapsible=0;recursiveResize=0;outlineConnect=0;" parent="1" vertex="1">
          <mxGeometry x="530" y="60" width="100" height="1360" as="geometry" />
        </mxCell>
        <mxCell id="bSOOkj2LtoVppGiLShXc-11" value="" style="html=1;points=[];perimeter=orthogonalPerimeter;" parent="bSOOkj2LtoVppGiLShXc-5" vertex="1">
          <mxGeometry x="45" y="155" width="10" height="80" as="geometry" />
        </mxCell>
        <mxCell id="zX_Marf303ho5TAtflHa-3" value="" style="html=1;points=[];perimeter=orthogonalPerimeter;" parent="bSOOkj2LtoVppGiLShXc-5" vertex="1">
          <mxGeometry x="45" y="1060" width="10" height="100" as="geometry" />
        </mxCell>
        <mxCell id="bSOOkj2LtoVppGiLShXc-7" value="dispatch" style="html=1;verticalAlign=bottom;startArrow=oval;endArrow=block;startSize=8;rounded=0;" parent="1" target="bSOOkj2LtoVppGiLShXc-6" edge="1">
          <mxGeometry relative="1" as="geometry">
            <mxPoint x="80" y="160" as="sourcePoint" />
          </mxGeometry>
        </mxCell>
        <mxCell id="bSOOkj2LtoVppGiLShXc-9" value="Open Interface" style="html=1;verticalAlign=bottom;endArrow=block;entryX=0;entryY=0;rounded=0;" parent="1" source="bSOOkj2LtoVppGiLShXc-6" target="bSOOkj2LtoVppGiLShXc-8" edge="1">
          <mxGeometry relative="1" as="geometry">
            <mxPoint x="345" y="190" as="sourcePoint" />
          </mxGeometry>
        </mxCell>
        <mxCell id="bSOOkj2LtoVppGiLShXc-10" value="Close Interface" style="html=1;verticalAlign=bottom;endArrow=open;dashed=1;endSize=8;exitX=0;exitY=0.95;rounded=0;" parent="1" source="bSOOkj2LtoVppGiLShXc-8" target="bSOOkj2LtoVppGiLShXc-6" edge="1">
          <mxGeometry relative="1" as="geometry">
            <mxPoint x="345" y="266" as="targetPoint" />
          </mxGeometry>
        </mxCell>
        <mxCell id="bSOOkj2LtoVppGiLShXc-12" value="Ask for update" style="html=1;verticalAlign=bottom;endArrow=block;entryX=0;entryY=0;rounded=0;" parent="1" source="bSOOkj2LtoVppGiLShXc-8" target="bSOOkj2LtoVppGiLShXc-11" edge="1">
          <mxGeometry relative="1" as="geometry">
            <mxPoint x="505" y="215" as="sourcePoint" />
          </mxGeometry>
        </mxCell>
        <mxCell id="bSOOkj2LtoVppGiLShXc-13" value="return DataObject" style="html=1;verticalAlign=bottom;endArrow=open;dashed=1;endSize=8;exitX=0;exitY=0.95;rounded=0;" parent="1" source="bSOOkj2LtoVppGiLShXc-11" target="bSOOkj2LtoVppGiLShXc-8" edge="1">
          <mxGeometry relative="1" as="geometry">
            <mxPoint x="505" y="291" as="targetPoint" />
          </mxGeometry>
        </mxCell>
        <mxCell id="bSOOkj2LtoVppGiLShXc-19" value="return DataObject" style="html=1;verticalAlign=bottom;endArrow=open;dashed=1;endSize=8;exitX=0;exitY=0.95;rounded=0;" parent="1" source="bSOOkj2LtoVppGiLShXc-17" edge="1">
          <mxGeometry relative="1" as="geometry">
            <mxPoint x="585" y="272.75" as="targetPoint" />
          </mxGeometry>
        </mxCell>
        <mxCell id="bSOOkj2LtoVppGiLShXc-18" value="Process Update" style="html=1;verticalAlign=bottom;endArrow=block;entryX=0;entryY=0;rounded=0;" parent="1" target="bSOOkj2LtoVppGiLShXc-17" edge="1">
          <mxGeometry relative="1" as="geometry">
            <mxPoint x="585" y="230" as="sourcePoint" />
          </mxGeometry>
        </mxCell>
        <mxCell id="bSOOkj2LtoVppGiLShXc-23" value="RenamePackets" style="html=1;verticalAlign=bottom;endArrow=block;entryX=0;entryY=0;rounded=0;" parent="1" source="bSOOkj2LtoVppGiLShXc-6" target="bSOOkj2LtoVppGiLShXc-22" edge="1">
          <mxGeometry relative="1" as="geometry">
            <mxPoint x="345" y="390" as="sourcePoint" />
          </mxGeometry>
        </mxCell>
        <mxCell id="bSOOkj2LtoVppGiLShXc-24" value="return" style="html=1;verticalAlign=bottom;endArrow=open;dashed=1;endSize=8;exitX=0;exitY=0.95;rounded=0;" parent="1" source="bSOOkj2LtoVppGiLShXc-22" target="bSOOkj2LtoVppGiLShXc-6" edge="1">
          <mxGeometry relative="1" as="geometry">
            <mxPoint x="345" y="466" as="targetPoint" />
          </mxGeometry>
        </mxCell>
        <mxCell id="bSOOkj2LtoVppGiLShXc-26" value="RetrainModel" style="html=1;verticalAlign=bottom;endArrow=block;entryX=0;entryY=0;rounded=0;" parent="1" source="bSOOkj2LtoVppGiLShXc-6" target="bSOOkj2LtoVppGiLShXc-25" edge="1">
          <mxGeometry relative="1" as="geometry">
            <mxPoint x="345" y="550" as="sourcePoint" />
          </mxGeometry>
        </mxCell>
        <mxCell id="bSOOkj2LtoVppGiLShXc-27" value="return" style="html=1;verticalAlign=bottom;endArrow=open;dashed=1;endSize=8;exitX=0;exitY=0.95;rounded=0;" parent="1" source="bSOOkj2LtoVppGiLShXc-25" target="bSOOkj2LtoVppGiLShXc-6" edge="1">
          <mxGeometry relative="1" as="geometry">
            <mxPoint x="345" y="626" as="targetPoint" />
          </mxGeometry>
        </mxCell>
        <mxCell id="bSOOkj2LtoVppGiLShXc-32" value=":Model2" style="shape=umlLifeline;perimeter=lifelinePerimeter;whiteSpace=wrap;html=1;container=1;collapsible=0;recursiveResize=0;outlineConnect=0;" parent="1" vertex="1">
          <mxGeometry x="840" y="540" width="100" height="510" as="geometry" />
        </mxCell>
        <mxCell id="bSOOkj2LtoVppGiLShXc-33" value="" style="html=1;points=[];perimeter=orthogonalPerimeter;" parent="bSOOkj2LtoVppGiLShXc-32" vertex="1">
          <mxGeometry x="45" y="45" width="10" height="80" as="geometry" />
        </mxCell>
        <mxCell id="bSOOkj2LtoVppGiLShXc-36" value="" style="html=1;points=[];perimeter=orthogonalPerimeter;" parent="bSOOkj2LtoVppGiLShXc-32" vertex="1">
          <mxGeometry x="51" y="75" width="10" height="40" as="geometry" />
        </mxCell>
        <mxCell id="bSOOkj2LtoVppGiLShXc-37" value="Train" style="edgeStyle=orthogonalEdgeStyle;html=1;align=left;spacingLeft=2;endArrow=block;rounded=0;entryX=1;entryY=0;" parent="bSOOkj2LtoVppGiLShXc-32" target="bSOOkj2LtoVppGiLShXc-36" edge="1">
          <mxGeometry relative="1" as="geometry">
            <mxPoint x="50" y="55" as="sourcePoint" />
            <Array as="points">
              <mxPoint x="80" y="55" />
            </Array>
          </mxGeometry>
        </mxCell>
        <mxCell id="bSOOkj2LtoVppGiLShXc-50" value="" style="shape=umlDestroy;whiteSpace=wrap;html=1;strokeWidth=3;" parent="bSOOkj2LtoVppGiLShXc-32" vertex="1">
          <mxGeometry x="35" y="480" width="30" height="30" as="geometry" />
        </mxCell>
        <mxCell id="bSOOkj2LtoVppGiLShXc-34" value="Send Updated Packets" style="html=1;verticalAlign=bottom;endArrow=block;entryX=0;entryY=0;rounded=0;" parent="1" source="bSOOkj2LtoVppGiLShXc-25" target="bSOOkj2LtoVppGiLShXc-33" edge="1">
          <mxGeometry relative="1" as="geometry">
            <mxPoint x="815" y="585" as="sourcePoint" />
          </mxGeometry>
        </mxCell>
        <mxCell id="bSOOkj2LtoVppGiLShXc-35" value="return" style="html=1;verticalAlign=bottom;endArrow=open;dashed=1;endSize=8;exitX=0;exitY=0.95;rounded=0;" parent="1" source="bSOOkj2LtoVppGiLShXc-33" target="bSOOkj2LtoVppGiLShXc-25" edge="1">
          <mxGeometry relative="1" as="geometry">
            <mxPoint x="815" y="661" as="targetPoint" />
          </mxGeometry>
        </mxCell>
        <mxCell id="bSOOkj2LtoVppGiLShXc-38" value="Delete old model" style="html=1;verticalAlign=bottom;endArrow=block;rounded=0;" parent="1" source="bSOOkj2LtoVppGiLShXc-25" target="bSOOkj2LtoVppGiLShXc-3" edge="1">
          <mxGeometry width="80" relative="1" as="geometry">
            <mxPoint x="440" y="680" as="sourcePoint" />
            <mxPoint x="520" y="680" as="targetPoint" />
            <Array as="points">
              <mxPoint x="510" y="700" />
              <mxPoint x="600" y="700" />
            </Array>
          </mxGeometry>
        </mxCell>
        <mxCell id="bSOOkj2LtoVppGiLShXc-40" value="Change Active Model" style="html=1;verticalAlign=bottom;endArrow=block;rounded=0;" parent="1" source="bSOOkj2LtoVppGiLShXc-25" target="bSOOkj2LtoVppGiLShXc-5" edge="1">
          <mxGeometry width="80" relative="1" as="geometry">
            <mxPoint x="440" y="680" as="sourcePoint" />
            <mxPoint x="520" y="680" as="targetPoint" />
            <Array as="points">
              <mxPoint x="540" y="680" />
            </Array>
          </mxGeometry>
        </mxCell>
        <mxCell id="bSOOkj2LtoVppGiLShXc-42" value="Load Old Model" style="html=1;verticalAlign=bottom;endArrow=block;entryX=0;entryY=0;rounded=0;" parent="1" source="bSOOkj2LtoVppGiLShXc-6" target="bSOOkj2LtoVppGiLShXc-41" edge="1">
          <mxGeometry relative="1" as="geometry">
            <mxPoint x="345" y="820" as="sourcePoint" />
          </mxGeometry>
        </mxCell>
        <mxCell id="bSOOkj2LtoVppGiLShXc-43" value="return" style="html=1;verticalAlign=bottom;endArrow=open;dashed=1;endSize=8;exitX=0;exitY=0.95;rounded=0;" parent="1" source="bSOOkj2LtoVppGiLShXc-41" target="bSOOkj2LtoVppGiLShXc-6" edge="1">
          <mxGeometry relative="1" as="geometry">
            <mxPoint x="345" y="896" as="targetPoint" />
          </mxGeometry>
        </mxCell>
        <mxCell id="bSOOkj2LtoVppGiLShXc-44" value=":Model" style="shape=umlLifeline;perimeter=lifelinePerimeter;whiteSpace=wrap;html=1;container=1;collapsible=0;recursiveResize=0;outlineConnect=0;" parent="1" vertex="1">
          <mxGeometry x="670" y="830" width="100" height="590" as="geometry" />
        </mxCell>
        <mxCell id="bSOOkj2LtoVppGiLShXc-45" value="" style="html=1;points=[];perimeter=orthogonalPerimeter;" parent="bSOOkj2LtoVppGiLShXc-44" vertex="1">
          <mxGeometry x="45" y="50" width="10" height="80" as="geometry" />
        </mxCell>
        <mxCell id="zX_Marf303ho5TAtflHa-8" value="" style="html=1;points=[];perimeter=orthogonalPerimeter;" parent="bSOOkj2LtoVppGiLShXc-44" vertex="1">
          <mxGeometry x="45" y="300" width="10" height="80" as="geometry" />
        </mxCell>
        <mxCell id="bSOOkj2LtoVppGiLShXc-46" value="Load Path" style="html=1;verticalAlign=bottom;endArrow=block;entryX=0;entryY=0;rounded=0;" parent="1" source="bSOOkj2LtoVppGiLShXc-41" target="bSOOkj2LtoVppGiLShXc-45" edge="1">
          <mxGeometry relative="1" as="geometry">
            <mxPoint x="645" y="880" as="sourcePoint" />
          </mxGeometry>
        </mxCell>
        <mxCell id="bSOOkj2LtoVppGiLShXc-47" value="return" style="html=1;verticalAlign=bottom;endArrow=open;dashed=1;endSize=8;exitX=0;exitY=0.95;rounded=0;" parent="1" source="bSOOkj2LtoVppGiLShXc-45" target="bSOOkj2LtoVppGiLShXc-41" edge="1">
          <mxGeometry relative="1" as="geometry">
            <mxPoint x="645" y="956" as="targetPoint" />
          </mxGeometry>
        </mxCell>
        <mxCell id="bSOOkj2LtoVppGiLShXc-48" value="Delete old model" style="html=1;verticalAlign=bottom;endArrow=block;rounded=0;" parent="1" source="bSOOkj2LtoVppGiLShXc-41" target="bSOOkj2LtoVppGiLShXc-32" edge="1">
          <mxGeometry width="80" relative="1" as="geometry">
            <mxPoint x="460" y="1030" as="sourcePoint" />
            <mxPoint x="754.5" y="1030" as="targetPoint" />
            <Array as="points">
              <mxPoint x="545" y="1030" />
              <mxPoint x="635" y="1030" />
            </Array>
          </mxGeometry>
        </mxCell>
        <mxCell id="bSOOkj2LtoVppGiLShXc-49" value="Change Active Model" style="html=1;verticalAlign=bottom;endArrow=block;rounded=0;" parent="1" source="bSOOkj2LtoVppGiLShXc-41" target="bSOOkj2LtoVppGiLShXc-5" edge="1">
          <mxGeometry width="80" relative="1" as="geometry">
            <mxPoint x="460" y="1010" as="sourcePoint" />
            <mxPoint x="560" y="1010" as="targetPoint" />
            <Array as="points">
              <mxPoint x="540" y="1010" />
            </Array>
          </mxGeometry>
        </mxCell>
        <mxCell id="zX_Marf303ho5TAtflHa-4" value="Ask For Update" style="html=1;verticalAlign=bottom;endArrow=block;entryX=0;entryY=0;rounded=0;" parent="1" source="zX_Marf303ho5TAtflHa-1" target="zX_Marf303ho5TAtflHa-3" edge="1">
          <mxGeometry relative="1" as="geometry">
            <mxPoint x="505" y="1120" as="sourcePoint" />
          </mxGeometry>
        </mxCell>
        <mxCell id="zX_Marf303ho5TAtflHa-5" value="return DataObject" style="html=1;verticalAlign=bottom;endArrow=open;dashed=1;endSize=8;exitX=0;exitY=0.95;rounded=0;" parent="1" source="zX_Marf303ho5TAtflHa-3" target="zX_Marf303ho5TAtflHa-1" edge="1">
          <mxGeometry relative="1" as="geometry">
            <mxPoint x="505" y="1196" as="targetPoint" />
          </mxGeometry>
        </mxCell>
        <mxCell id="zX_Marf303ho5TAtflHa-9" value="Process update" style="html=1;verticalAlign=bottom;endArrow=block;entryX=0;entryY=0;rounded=0;" parent="1" source="zX_Marf303ho5TAtflHa-3" target="zX_Marf303ho5TAtflHa-8" edge="1">
          <mxGeometry relative="1" as="geometry">
            <mxPoint x="645" y="1130" as="sourcePoint" />
          </mxGeometry>
        </mxCell>
        <mxCell id="zX_Marf303ho5TAtflHa-10" value="return DataObject" style="html=1;verticalAlign=bottom;endArrow=open;dashed=1;endSize=8;exitX=0;exitY=0.95;rounded=0;" parent="1" source="zX_Marf303ho5TAtflHa-8" target="zX_Marf303ho5TAtflHa-3" edge="1">
          <mxGeometry relative="1" as="geometry">
            <mxPoint x="645" y="1206" as="targetPoint" />
          </mxGeometry>
        </mxCell>
      </root>
    </mxGraphModel>
  </diagram>
  <diagram id="fEduBJOwlvDHKiMSRba5" name="Use Case">
    <mxGraphModel dx="1261" dy="1919" grid="1" gridSize="10" guides="1" tooltips="1" connect="1" arrows="1" fold="1" page="1" pageScale="1" pageWidth="850" pageHeight="1100" math="0" shadow="0">
      <root>
        <mxCell id="0" />
        <mxCell id="1" parent="0" />
        <mxCell id="2hcLW0e11_DfODNvjZqK-7" style="edgeStyle=orthogonalEdgeStyle;rounded=0;orthogonalLoop=1;jettySize=auto;html=1;exitX=0.5;exitY=0.5;exitDx=0;exitDy=0;exitPerimeter=0;" parent="1" source="2hcLW0e11_DfODNvjZqK-1" target="2hcLW0e11_DfODNvjZqK-6" edge="1">
          <mxGeometry relative="1" as="geometry">
            <Array as="points">
              <mxPoint x="155" y="300" />
              <mxPoint x="230" y="300" />
              <mxPoint x="230" y="135" />
            </Array>
          </mxGeometry>
        </mxCell>
        <mxCell id="2hcLW0e11_DfODNvjZqK-8" style="edgeStyle=orthogonalEdgeStyle;rounded=0;orthogonalLoop=1;jettySize=auto;html=1;" parent="1" source="2hcLW0e11_DfODNvjZqK-1" target="2hcLW0e11_DfODNvjZqK-5" edge="1">
          <mxGeometry relative="1" as="geometry">
            <Array as="points">
              <mxPoint x="230" y="300" />
              <mxPoint x="230" y="245" />
            </Array>
          </mxGeometry>
        </mxCell>
        <mxCell id="2hcLW0e11_DfODNvjZqK-9" style="edgeStyle=orthogonalEdgeStyle;rounded=0;orthogonalLoop=1;jettySize=auto;html=1;" parent="1" source="2hcLW0e11_DfODNvjZqK-1" target="2hcLW0e11_DfODNvjZqK-4" edge="1">
          <mxGeometry relative="1" as="geometry">
            <Array as="points">
              <mxPoint x="230" y="300" />
              <mxPoint x="230" y="460" />
            </Array>
          </mxGeometry>
        </mxCell>
        <mxCell id="2hcLW0e11_DfODNvjZqK-10" style="edgeStyle=orthogonalEdgeStyle;rounded=0;orthogonalLoop=1;jettySize=auto;html=1;" parent="1" source="2hcLW0e11_DfODNvjZqK-1" target="2hcLW0e11_DfODNvjZqK-3" edge="1">
          <mxGeometry relative="1" as="geometry">
            <Array as="points">
              <mxPoint x="230" y="300" />
              <mxPoint x="230" y="360" />
            </Array>
          </mxGeometry>
        </mxCell>
        <mxCell id="2hcLW0e11_DfODNvjZqK-1" value="Network admin" style="shape=umlActor;verticalLabelPosition=bottom;verticalAlign=top;html=1;" parent="1" vertex="1">
          <mxGeometry x="140" y="264" width="30" height="60" as="geometry" />
        </mxCell>
        <mxCell id="2hcLW0e11_DfODNvjZqK-2" value="User Commands" style="shape=umlFrame;whiteSpace=wrap;html=1;" parent="1" vertex="1">
          <mxGeometry x="270" y="20" width="410" height="510" as="geometry" />
        </mxCell>
        <mxCell id="pWyj-O2YRlHCRNEuC1P--5" style="edgeStyle=orthogonalEdgeStyle;rounded=0;orthogonalLoop=1;jettySize=auto;html=1;" parent="1" source="2hcLW0e11_DfODNvjZqK-3" target="pWyj-O2YRlHCRNEuC1P--4" edge="1">
          <mxGeometry relative="1" as="geometry">
            <Array as="points">
              <mxPoint x="650" y="359" />
              <mxPoint x="650" y="220" />
            </Array>
          </mxGeometry>
        </mxCell>
        <mxCell id="2hcLW0e11_DfODNvjZqK-3" value="Rename Packets" style="ellipse;whiteSpace=wrap;html=1;" parent="1" vertex="1">
          <mxGeometry x="400" y="324" width="140" height="70" as="geometry" />
        </mxCell>
        <mxCell id="pWyj-O2YRlHCRNEuC1P--3" style="edgeStyle=orthogonalEdgeStyle;rounded=0;orthogonalLoop=1;jettySize=auto;html=1;" parent="1" source="2hcLW0e11_DfODNvjZqK-4" target="2hcLW0e11_DfODNvjZqK-11" edge="1">
          <mxGeometry relative="1" as="geometry" />
        </mxCell>
        <mxCell id="2hcLW0e11_DfODNvjZqK-4" value="Get Update" style="ellipse;whiteSpace=wrap;html=1;" parent="1" vertex="1">
          <mxGeometry x="400" y="420" width="140" height="70" as="geometry" />
        </mxCell>
        <mxCell id="pWyj-O2YRlHCRNEuC1P--6" style="edgeStyle=orthogonalEdgeStyle;rounded=0;orthogonalLoop=1;jettySize=auto;html=1;" parent="1" source="2hcLW0e11_DfODNvjZqK-5" target="pWyj-O2YRlHCRNEuC1P--4" edge="1">
          <mxGeometry relative="1" as="geometry" />
        </mxCell>
        <mxCell id="2hcLW0e11_DfODNvjZqK-5" value="Load Old Model" style="ellipse;whiteSpace=wrap;html=1;" parent="1" vertex="1">
          <mxGeometry x="400" y="210" width="140" height="70" as="geometry" />
        </mxCell>
        <mxCell id="pWyj-O2YRlHCRNEuC1P--7" style="edgeStyle=orthogonalEdgeStyle;rounded=0;orthogonalLoop=1;jettySize=auto;html=1;" parent="1" source="2hcLW0e11_DfODNvjZqK-6" target="pWyj-O2YRlHCRNEuC1P--4" edge="1">
          <mxGeometry relative="1" as="geometry">
            <Array as="points">
              <mxPoint x="650" y="135" />
              <mxPoint x="650" y="220" />
            </Array>
          </mxGeometry>
        </mxCell>
        <mxCell id="2hcLW0e11_DfODNvjZqK-6" value="Retrain" style="ellipse;whiteSpace=wrap;html=1;" parent="1" vertex="1">
          <mxGeometry x="400" y="100" width="140" height="70" as="geometry" />
        </mxCell>
        <mxCell id="pWyj-O2YRlHCRNEuC1P--10" style="edgeStyle=orthogonalEdgeStyle;rounded=0;orthogonalLoop=1;jettySize=auto;html=1;" parent="1" source="2hcLW0e11_DfODNvjZqK-11" target="pWyj-O2YRlHCRNEuC1P--9" edge="1">
          <mxGeometry relative="1" as="geometry" />
        </mxCell>
        <mxCell id="2hcLW0e11_DfODNvjZqK-11" value="DataCollector" style="shape=umlActor;verticalLabelPosition=bottom;verticalAlign=top;html=1;" parent="1" vertex="1">
          <mxGeometry x="740" y="425" width="30" height="60" as="geometry" />
        </mxCell>
        <mxCell id="pWyj-O2YRlHCRNEuC1P--19" style="edgeStyle=orthogonalEdgeStyle;rounded=0;orthogonalLoop=1;jettySize=auto;html=1;" parent="1" source="pWyj-O2YRlHCRNEuC1P--4" target="pWyj-O2YRlHCRNEuC1P--16" edge="1">
          <mxGeometry relative="1" as="geometry">
            <Array as="points">
              <mxPoint x="800" y="220" />
              <mxPoint x="800" y="5" />
            </Array>
          </mxGeometry>
        </mxCell>
        <mxCell id="pWyj-O2YRlHCRNEuC1P--20" style="edgeStyle=orthogonalEdgeStyle;rounded=0;orthogonalLoop=1;jettySize=auto;html=1;" parent="1" source="pWyj-O2YRlHCRNEuC1P--4" target="pWyj-O2YRlHCRNEuC1P--14" edge="1">
          <mxGeometry relative="1" as="geometry">
            <Array as="points">
              <mxPoint x="800" y="220" />
              <mxPoint x="800" y="104" />
            </Array>
          </mxGeometry>
        </mxCell>
        <mxCell id="pWyj-O2YRlHCRNEuC1P--21" style="edgeStyle=orthogonalEdgeStyle;rounded=0;orthogonalLoop=1;jettySize=auto;html=1;" parent="1" source="pWyj-O2YRlHCRNEuC1P--4" target="pWyj-O2YRlHCRNEuC1P--15" edge="1">
          <mxGeometry relative="1" as="geometry">
            <Array as="points">
              <mxPoint x="800" y="220" />
              <mxPoint x="800" y="270" />
            </Array>
          </mxGeometry>
        </mxCell>
        <mxCell id="pWyj-O2YRlHCRNEuC1P--24" style="edgeStyle=orthogonalEdgeStyle;rounded=0;orthogonalLoop=1;jettySize=auto;html=1;" parent="1" source="pWyj-O2YRlHCRNEuC1P--4" target="pWyj-O2YRlHCRNEuC1P--23" edge="1">
          <mxGeometry relative="1" as="geometry">
            <Array as="points">
              <mxPoint x="800" y="220" />
              <mxPoint x="800" y="185" />
            </Array>
          </mxGeometry>
        </mxCell>
        <mxCell id="pWyj-O2YRlHCRNEuC1P--4" value="Interface" style="shape=umlActor;verticalLabelPosition=bottom;verticalAlign=top;html=1;" parent="1" vertex="1">
          <mxGeometry x="730" y="190" width="30" height="60" as="geometry" />
        </mxCell>
        <mxCell id="pWyj-O2YRlHCRNEuC1P--8" value="DataCollection" style="shape=umlFrame;whiteSpace=wrap;html=1;" parent="1" vertex="1">
          <mxGeometry x="870" y="380" width="300" height="200" as="geometry" />
        </mxCell>
        <mxCell id="pWyj-O2YRlHCRNEuC1P--12" style="edgeStyle=orthogonalEdgeStyle;rounded=0;orthogonalLoop=1;jettySize=auto;html=1;exitX=1;exitY=0.5;exitDx=0;exitDy=0;" parent="1" source="pWyj-O2YRlHCRNEuC1P--9" target="pWyj-O2YRlHCRNEuC1P--11" edge="1">
          <mxGeometry relative="1" as="geometry">
            <Array as="points">
              <mxPoint x="1220" y="480" />
              <mxPoint x="1220" y="359" />
            </Array>
          </mxGeometry>
        </mxCell>
        <mxCell id="pWyj-O2YRlHCRNEuC1P--9" value="Forward New Data" style="ellipse;whiteSpace=wrap;html=1;" parent="1" vertex="1">
          <mxGeometry x="940" y="445" width="140" height="70" as="geometry" />
        </mxCell>
        <mxCell id="pWyj-O2YRlHCRNEuC1P--11" value="Model" style="shape=umlActor;verticalLabelPosition=bottom;verticalAlign=top;html=1;" parent="1" vertex="1">
          <mxGeometry x="1300" y="329" width="30" height="60" as="geometry" />
        </mxCell>
        <mxCell id="pWyj-O2YRlHCRNEuC1P--13" value="Interface Actions" style="shape=umlFrame;whiteSpace=wrap;html=1;" parent="1" vertex="1">
          <mxGeometry x="860" y="-56" width="300" height="366" as="geometry" />
        </mxCell>
        <mxCell id="pWyj-O2YRlHCRNEuC1P--25" style="edgeStyle=orthogonalEdgeStyle;rounded=0;orthogonalLoop=1;jettySize=auto;html=1;" parent="1" source="pWyj-O2YRlHCRNEuC1P--14" target="pWyj-O2YRlHCRNEuC1P--11" edge="1">
          <mxGeometry relative="1" as="geometry">
            <Array as="points">
              <mxPoint x="1220" y="104" />
              <mxPoint x="1220" y="359" />
            </Array>
          </mxGeometry>
        </mxCell>
        <mxCell id="pWyj-O2YRlHCRNEuC1P--14" value="Spin up new model" style="ellipse;whiteSpace=wrap;html=1;" parent="1" vertex="1">
          <mxGeometry x="940" y="69" width="140" height="70" as="geometry" />
        </mxCell>
        <mxCell id="pWyj-O2YRlHCRNEuC1P--22" style="edgeStyle=orthogonalEdgeStyle;rounded=0;orthogonalLoop=1;jettySize=auto;html=1;" parent="1" source="pWyj-O2YRlHCRNEuC1P--15" target="2hcLW0e11_DfODNvjZqK-11" edge="1">
          <mxGeometry relative="1" as="geometry">
            <Array as="points">
              <mxPoint x="1180" y="265" />
              <mxPoint x="1180" y="330" />
              <mxPoint x="700" y="330" />
              <mxPoint x="700" y="455" />
            </Array>
          </mxGeometry>
        </mxCell>
        <mxCell id="pWyj-O2YRlHCRNEuC1P--15" value="Switch Active Model" style="ellipse;whiteSpace=wrap;html=1;" parent="1" vertex="1">
          <mxGeometry x="940" y="230" width="140" height="70" as="geometry" />
        </mxCell>
        <mxCell id="pWyj-O2YRlHCRNEuC1P--18" style="edgeStyle=orthogonalEdgeStyle;rounded=0;orthogonalLoop=1;jettySize=auto;html=1;exitX=1;exitY=0.5;exitDx=0;exitDy=0;" parent="1" source="pWyj-O2YRlHCRNEuC1P--16" target="pWyj-O2YRlHCRNEuC1P--17" edge="1">
          <mxGeometry relative="1" as="geometry" />
        </mxCell>
        <mxCell id="pWyj-O2YRlHCRNEuC1P--16" value="Save new packet names" style="ellipse;whiteSpace=wrap;html=1;" parent="1" vertex="1">
          <mxGeometry x="940" y="-30" width="140" height="70" as="geometry" />
        </mxCell>
        <mxCell id="pWyj-O2YRlHCRNEuC1P--17" value="File" style="html=1;" parent="1" vertex="1">
          <mxGeometry x="1200" y="-40" width="110" height="50" as="geometry" />
        </mxCell>
        <mxCell id="pWyj-O2YRlHCRNEuC1P--26" style="edgeStyle=orthogonalEdgeStyle;rounded=0;orthogonalLoop=1;jettySize=auto;html=1;" parent="1" source="pWyj-O2YRlHCRNEuC1P--23" target="pWyj-O2YRlHCRNEuC1P--11" edge="1">
          <mxGeometry relative="1" as="geometry">
            <Array as="points">
              <mxPoint x="1220" y="185" />
              <mxPoint x="1220" y="359" />
            </Array>
          </mxGeometry>
        </mxCell>
        <mxCell id="pWyj-O2YRlHCRNEuC1P--23" value="Delete Inactive model" style="ellipse;whiteSpace=wrap;html=1;" parent="1" vertex="1">
          <mxGeometry x="940" y="150" width="140" height="70" as="geometry" />
        </mxCell>
      </root>
    </mxGraphModel>
  </diagram>
  <diagram id="LkrMmOJweJ0sQ2jZDN04" name="Package">
    <mxGraphModel grid="1" page="1" gridSize="10" guides="1" tooltips="1" connect="1" arrows="1" fold="1" pageScale="1" pageWidth="850" pageHeight="1100" math="0" shadow="0">
      <root>
        <mxCell id="0" />
        <mxCell id="1" parent="0" />
        <mxCell id="Qk5AwcaiMd-IKgrm0FRC-1" value="Data Package" style="shape=umlFrame;whiteSpace=wrap;html=1;" vertex="1" parent="1">
          <mxGeometry x="-10" y="90" width="490" height="430" as="geometry" />
        </mxCell>
        <mxCell id="Qk5AwcaiMd-IKgrm0FRC-3" value="&lt;p style=&quot;margin: 0px ; margin-top: 4px ; text-align: center&quot;&gt;&lt;span style=&quot;font-size: 10pt ; font-family: &amp;#34;times&amp;#34; , serif&quot;&gt;&lt;b&gt;Network Packet Scraper&lt;/b&gt;&lt;/span&gt;&lt;span style=&quot;font-size: medium&quot;&gt;&lt;/span&gt;&lt;br&gt;&lt;/p&gt;&lt;hr size=&quot;1&quot;&gt;&lt;div style=&quot;height: 2px&quot;&gt;The Packet Scraper will&amp;nbsp;&lt;/div&gt;&lt;div style=&quot;height: 2px&quot;&gt;&lt;br&gt;&lt;/div&gt;&lt;div style=&quot;height: 2px&quot;&gt;&lt;br&gt;&lt;/div&gt;&lt;div style=&quot;height: 2px&quot;&gt;&lt;br&gt;&lt;/div&gt;&lt;div style=&quot;height: 2px&quot;&gt;&lt;br&gt;&lt;/div&gt;&lt;div style=&quot;height: 2px&quot;&gt;be run periodically to get&lt;/div&gt;&lt;div style=&quot;height: 2px&quot;&gt;&lt;br&gt;&lt;/div&gt;&lt;div style=&quot;height: 2px&quot;&gt;&lt;br&gt;&lt;/div&gt;&lt;div style=&quot;height: 2px&quot;&gt;&lt;br&gt;&lt;/div&gt;&lt;div style=&quot;height: 2px&quot;&gt;&lt;br&gt;&lt;/div&gt;&lt;div style=&quot;height: 2px&quot;&gt;&lt;span&gt;&amp;nbsp;data out of the network&lt;/span&gt;&lt;br&gt;&lt;/div&gt;" style="verticalAlign=top;align=left;overflow=fill;fontSize=12;fontFamily=Helvetica;html=1;" vertex="1" parent="1">
          <mxGeometry x="90" y="200" width="150" height="70" as="geometry" />
        </mxCell>
        <mxCell id="Qk5AwcaiMd-IKgrm0FRC-4" value="Model" style="shape=umlFrame;whiteSpace=wrap;html=1;" vertex="1" parent="1">
          <mxGeometry x="150" y="620" width="500" height="410" as="geometry" />
        </mxCell>
        <mxCell id="Qk5AwcaiMd-IKgrm0FRC-5" value="Interface" style="shape=umlFrame;whiteSpace=wrap;html=1;" vertex="1" parent="1">
          <mxGeometry x="670" y="90" width="630" height="390" as="geometry" />
        </mxCell>
        <mxCell id="Qk5AwcaiMd-IKgrm0FRC-6" value="&lt;p style=&quot;margin: 0px ; margin-top: 4px ; text-align: center&quot;&gt;&lt;b&gt;Network Packet Model&lt;/b&gt;&lt;/p&gt;&lt;hr size=&quot;1&quot;&gt;&lt;div style=&quot;height: 2px&quot;&gt;Reads detected network &lt;br&gt;packets and assigns &lt;br&gt;classes to them&lt;/div&gt;" style="verticalAlign=top;align=left;overflow=fill;fontSize=12;fontFamily=Helvetica;html=1;" vertex="1" parent="1">
          <mxGeometry x="170" y="690" width="135" height="80" as="geometry" />
        </mxCell>
        <mxCell id="Qk5AwcaiMd-IKgrm0FRC-7" value="&lt;p style=&quot;margin: 0px ; margin-top: 4px ; text-align: center&quot;&gt;&lt;b&gt;DataOutputObject&lt;/b&gt;&lt;/p&gt;&lt;hr size=&quot;1&quot;&gt;&lt;div style=&quot;height: 2px&quot;&gt;The Network Packet Model &lt;br&gt;will generate these objects that&lt;br&gt;contain information about the&amp;nbsp;&lt;br&gt;network packets&lt;/div&gt;" style="verticalAlign=top;align=left;overflow=fill;fontSize=12;fontFamily=Helvetica;html=1;" vertex="1" parent="1">
          <mxGeometry x="440" y="650" width="175" height="100" as="geometry" />
        </mxCell>
        <mxCell id="Qk5AwcaiMd-IKgrm0FRC-8" value="&lt;p style=&quot;margin: 0px ; margin-top: 4px ; text-align: center&quot;&gt;&lt;b&gt;DataLoader&lt;/b&gt;&lt;/p&gt;&lt;hr size=&quot;1&quot;&gt;&lt;div style=&quot;height: 2px&quot;&gt;Dataloader loads network&lt;br&gt;&amp;nbsp;data for model training&lt;/div&gt;" style="verticalAlign=top;align=left;overflow=fill;fontSize=12;fontFamily=Helvetica;html=1;" vertex="1" parent="1">
          <mxGeometry x="165" y="930" width="140" height="60" as="geometry" />
        </mxCell>
        <mxCell id="Qk5AwcaiMd-IKgrm0FRC-9" value="&lt;p style=&quot;margin: 0px ; margin-top: 4px ; text-align: center&quot;&gt;&lt;b&gt;Endlayer&lt;/b&gt;&lt;/p&gt;&lt;hr size=&quot;1&quot;&gt;&lt;div style=&quot;height: 2px&quot;&gt;Identifies cases of &lt;br&gt;unknown packets&amp;nbsp;&lt;/div&gt;" style="verticalAlign=top;align=left;overflow=fill;fontSize=12;fontFamily=Helvetica;html=1;" vertex="1" parent="1">
          <mxGeometry x="210" y="815" width="140" height="60" as="geometry" />
        </mxCell>
        <mxCell id="Qk5AwcaiMd-IKgrm0FRC-11" value="&lt;p style=&quot;margin: 0px ; margin-top: 4px ; text-align: center&quot;&gt;&lt;b&gt;Config&lt;/b&gt;&lt;/p&gt;&lt;hr size=&quot;1&quot;&gt;&lt;div style=&quot;height: 2px&quot;&gt;Config stores all of the&lt;br&gt;Model configurations and&lt;br&gt;Hyperparameters&lt;/div&gt;" style="verticalAlign=top;align=left;overflow=fill;fontSize=12;fontFamily=Helvetica;html=1;" vertex="1" parent="1">
          <mxGeometry x="430" y="915" width="140" height="90" as="geometry" />
        </mxCell>
        <mxCell id="8pwKLiYU2CFrT4VHXz_L-2" value="Use" style="endArrow=open;endSize=12;dashed=1;html=1;rounded=0;" edge="1" parent="1">
          <mxGeometry width="160" relative="1" as="geometry">
            <mxPoint x="192.06521739130426" y="770" as="sourcePoint" />
            <mxPoint x="190.32608695652175" y="930" as="targetPoint" />
          </mxGeometry>
        </mxCell>
        <mxCell id="8pwKLiYU2CFrT4VHXz_L-3" value="" style="endArrow=none;html=1;edgeStyle=orthogonalEdgeStyle;rounded=0;" edge="1" parent="1" source="Qk5AwcaiMd-IKgrm0FRC-6" target="Qk5AwcaiMd-IKgrm0FRC-9">
          <mxGeometry relative="1" as="geometry">
            <mxPoint x="250" y="790" as="sourcePoint" />
            <mxPoint x="410" y="790" as="targetPoint" />
          </mxGeometry>
        </mxCell>
        <mxCell id="8pwKLiYU2CFrT4VHXz_L-4" value="Model" style="edgeLabel;resizable=0;html=1;align=left;verticalAlign=bottom;" connectable="0" vertex="1" parent="8pwKLiYU2CFrT4VHXz_L-3">
          <mxGeometry x="-1" relative="1" as="geometry">
            <mxPoint y="20" as="offset" />
          </mxGeometry>
        </mxCell>
        <mxCell id="8pwKLiYU2CFrT4VHXz_L-5" value="Unknown Detector" style="edgeLabel;resizable=0;html=1;align=right;verticalAlign=bottom;" connectable="0" vertex="1" parent="8pwKLiYU2CFrT4VHXz_L-3">
          <mxGeometry x="1" relative="1" as="geometry">
            <mxPoint x="100" as="offset" />
          </mxGeometry>
        </mxCell>
        <mxCell id="8pwKLiYU2CFrT4VHXz_L-7" value="Use" style="endArrow=open;endSize=12;dashed=1;html=1;rounded=0;" edge="1" parent="1" source="Qk5AwcaiMd-IKgrm0FRC-6" target="Qk5AwcaiMd-IKgrm0FRC-11">
          <mxGeometry width="160" relative="1" as="geometry">
            <mxPoint x="330" y="750" as="sourcePoint" />
            <mxPoint x="490" y="750" as="targetPoint" />
            <Array as="points">
              <mxPoint x="390" y="800" />
            </Array>
          </mxGeometry>
        </mxCell>
        <mxCell id="8pwKLiYU2CFrT4VHXz_L-8" value="Use" style="endArrow=open;endSize=12;dashed=1;html=1;rounded=0;" edge="1" parent="1" source="Qk5AwcaiMd-IKgrm0FRC-8" target="Qk5AwcaiMd-IKgrm0FRC-11">
          <mxGeometry width="160" relative="1" as="geometry">
            <mxPoint x="320" y="1000" as="sourcePoint" />
            <mxPoint x="480" y="1000" as="targetPoint" />
          </mxGeometry>
        </mxCell>
        <mxCell id="8pwKLiYU2CFrT4VHXz_L-9" value="Created by" style="endArrow=open;html=1;endSize=12;startArrow=diamondThin;startSize=14;startFill=0;edgeStyle=orthogonalEdgeStyle;rounded=0;" edge="1" parent="1" source="Qk5AwcaiMd-IKgrm0FRC-7" target="Qk5AwcaiMd-IKgrm0FRC-6">
          <mxGeometry relative="1" as="geometry">
            <mxPoint x="430" y="690" as="sourcePoint" />
            <mxPoint x="590" y="690" as="targetPoint" />
            <Array as="points">
              <mxPoint x="538" y="730" />
            </Array>
          </mxGeometry>
        </mxCell>
        <mxCell id="8pwKLiYU2CFrT4VHXz_L-10" value="0..n" style="edgeLabel;resizable=0;html=1;align=left;verticalAlign=top;" connectable="0" vertex="1" parent="8pwKLiYU2CFrT4VHXz_L-9">
          <mxGeometry x="-1" relative="1" as="geometry">
            <mxPoint x="-30" y="-30" as="offset" />
          </mxGeometry>
        </mxCell>
        <mxCell id="8pwKLiYU2CFrT4VHXz_L-11" value="1" style="edgeLabel;resizable=0;html=1;align=right;verticalAlign=top;" connectable="0" vertex="1" parent="8pwKLiYU2CFrT4VHXz_L-9">
          <mxGeometry x="1" relative="1" as="geometry" />
        </mxCell>
        <mxCell id="8pwKLiYU2CFrT4VHXz_L-12" value="&lt;p style=&quot;margin: 0px ; margin-top: 4px ; text-align: center&quot;&gt;&lt;b&gt;Data Transfomer&lt;/b&gt;&lt;/p&gt;&lt;hr size=&quot;1&quot;&gt;&lt;div style=&quot;height: 2px&quot;&gt;Transforms data into the&lt;br&gt;correct formats&lt;/div&gt;" style="verticalAlign=top;align=left;overflow=fill;fontSize=12;fontFamily=Helvetica;html=1;" vertex="1" parent="1">
          <mxGeometry x="90" y="340" width="140" height="60" as="geometry" />
        </mxCell>
        <mxCell id="8pwKLiYU2CFrT4VHXz_L-13" value="&lt;p style=&quot;margin: 0px ; margin-top: 4px ; text-align: center&quot;&gt;&lt;b&gt;Database&lt;/b&gt;&lt;/p&gt;&lt;hr size=&quot;1&quot;&gt;&lt;div style=&quot;height: 2px&quot;&gt;Stores the model outputs&lt;br&gt;in a searchable form&lt;/div&gt;" style="verticalAlign=top;align=left;overflow=fill;fontSize=12;fontFamily=Helvetica;html=1;" vertex="1" parent="1">
          <mxGeometry x="300" y="210" width="140" height="60" as="geometry" />
        </mxCell>
        <mxCell id="8pwKLiYU2CFrT4VHXz_L-15" value="&lt;p style=&quot;margin: 0px ; margin-top: 4px ; text-align: center&quot;&gt;&lt;b&gt;Statistical Model&lt;/b&gt;&lt;/p&gt;&lt;hr size=&quot;1&quot;&gt;&lt;div style=&quot;height: 2px&quot;&gt;Reads data output statistics&lt;br&gt;and generates a reliability value&lt;/div&gt;" style="verticalAlign=top;align=left;overflow=fill;fontSize=12;fontFamily=Helvetica;html=1;" vertex="1" parent="1">
          <mxGeometry x="20" y="440" width="190" height="60" as="geometry" />
        </mxCell>
        <mxCell id="8pwKLiYU2CFrT4VHXz_L-16" value="&lt;p style=&quot;margin: 0px ; margin-top: 4px ; text-align: center&quot;&gt;&lt;b&gt;Model Transformer&lt;/b&gt;&lt;/p&gt;&lt;hr size=&quot;1&quot;&gt;&lt;div style=&quot;height: 2px&quot;&gt;Sends data to the model&lt;br&gt;to transform it&lt;/div&gt;" style="verticalAlign=top;align=left;overflow=fill;fontSize=12;fontFamily=Helvetica;html=1;" vertex="1" parent="1">
          <mxGeometry x="300" y="390" width="140" height="60" as="geometry" />
        </mxCell>
        <mxCell id="8pwKLiYU2CFrT4VHXz_L-18" value="Use" style="endArrow=open;endSize=12;dashed=1;html=1;rounded=0;" edge="1" parent="1" source="8pwKLiYU2CFrT4VHXz_L-16" target="Qk5AwcaiMd-IKgrm0FRC-7">
          <mxGeometry width="160" relative="1" as="geometry">
            <mxPoint x="250" y="570" as="sourcePoint" />
            <mxPoint x="410" y="570" as="targetPoint" />
          </mxGeometry>
        </mxCell>
        <mxCell id="8pwKLiYU2CFrT4VHXz_L-19" value="Use" style="endArrow=open;endSize=12;dashed=1;html=1;rounded=0;" edge="1" parent="1" source="8pwKLiYU2CFrT4VHXz_L-16" target="8pwKLiYU2CFrT4VHXz_L-15">
          <mxGeometry width="160" relative="1" as="geometry">
            <mxPoint x="240" y="550" as="sourcePoint" />
            <mxPoint x="400" y="550" as="targetPoint" />
          </mxGeometry>
        </mxCell>
        <mxCell id="8pwKLiYU2CFrT4VHXz_L-21" value="" style="endArrow=none;html=1;edgeStyle=orthogonalEdgeStyle;rounded=0;" edge="1" parent="1" source="8pwKLiYU2CFrT4VHXz_L-13" target="8pwKLiYU2CFrT4VHXz_L-16">
          <mxGeometry relative="1" as="geometry">
            <mxPoint x="540" y="480" as="sourcePoint" />
            <mxPoint x="700" y="480" as="targetPoint" />
          </mxGeometry>
        </mxCell>
        <mxCell id="8pwKLiYU2CFrT4VHXz_L-22" value="1" style="edgeLabel;resizable=0;html=1;align=left;verticalAlign=bottom;" connectable="0" vertex="1" parent="8pwKLiYU2CFrT4VHXz_L-21">
          <mxGeometry x="-1" relative="1" as="geometry">
            <mxPoint y="20" as="offset" />
          </mxGeometry>
        </mxCell>
        <mxCell id="8pwKLiYU2CFrT4VHXz_L-23" value="1..n" style="edgeLabel;resizable=0;html=1;align=right;verticalAlign=bottom;" connectable="0" vertex="1" parent="8pwKLiYU2CFrT4VHXz_L-21">
          <mxGeometry x="1" relative="1" as="geometry" />
        </mxCell>
        <mxCell id="8pwKLiYU2CFrT4VHXz_L-24" value="Use" style="endArrow=open;endSize=12;dashed=1;html=1;rounded=0;" edge="1" parent="1" source="8pwKLiYU2CFrT4VHXz_L-13" target="8pwKLiYU2CFrT4VHXz_L-12">
          <mxGeometry width="160" relative="1" as="geometry">
            <mxPoint x="220" y="550" as="sourcePoint" />
            <mxPoint x="380" y="550" as="targetPoint" />
          </mxGeometry>
        </mxCell>
        <mxCell id="8pwKLiYU2CFrT4VHXz_L-25" value="Use" style="endArrow=open;endSize=12;dashed=1;html=1;rounded=0;" edge="1" parent="1" source="8pwKLiYU2CFrT4VHXz_L-12" target="Qk5AwcaiMd-IKgrm0FRC-3">
          <mxGeometry width="160" relative="1" as="geometry">
            <mxPoint x="210" y="570" as="sourcePoint" />
            <mxPoint x="370" y="570" as="targetPoint" />
          </mxGeometry>
        </mxCell>
        <mxCell id="8pwKLiYU2CFrT4VHXz_L-26" value="&lt;p style=&quot;margin: 0px ; margin-top: 4px ; text-align: center&quot;&gt;&lt;b&gt;GUI&lt;/b&gt;&lt;/p&gt;&lt;hr size=&quot;1&quot;&gt;&lt;div style=&quot;height: 2px&quot;&gt;Displays data from the&amp;nbsp;&lt;br&gt;database in a graphical&lt;br&gt;format&lt;/div&gt;" style="verticalAlign=top;align=left;overflow=fill;fontSize=12;fontFamily=Helvetica;html=1;" vertex="1" parent="1">
          <mxGeometry x="740" y="150" width="140" height="80" as="geometry" />
        </mxCell>
        <mxCell id="8pwKLiYU2CFrT4VHXz_L-27" value="Use" style="endArrow=open;endSize=12;dashed=1;html=1;rounded=0;" edge="1" parent="1" source="8pwKLiYU2CFrT4VHXz_L-26" target="8pwKLiYU2CFrT4VHXz_L-13">
          <mxGeometry width="160" relative="1" as="geometry">
            <mxPoint x="560" y="230" as="sourcePoint" />
            <mxPoint x="720" y="230" as="targetPoint" />
          </mxGeometry>
        </mxCell>
        <mxCell id="8pwKLiYU2CFrT4VHXz_L-28" value="&lt;p style=&quot;margin: 0px ; margin-top: 4px ; text-align: center&quot;&gt;&lt;b&gt;User controls&lt;/b&gt;&lt;/p&gt;&lt;hr size=&quot;1&quot;&gt;&lt;div style=&quot;height: 2px&quot;&gt;Items the user can use to &lt;br&gt;control model and data collection&lt;/div&gt;" style="verticalAlign=top;align=left;overflow=fill;fontSize=12;fontFamily=Helvetica;html=1;" vertex="1" parent="1">
          <mxGeometry x="720" y="320" width="180" height="60" as="geometry" />
        </mxCell>
        <mxCell id="8pwKLiYU2CFrT4VHXz_L-29" value="Extends" style="endArrow=block;endSize=16;endFill=0;html=1;rounded=0;" edge="1" parent="1" source="8pwKLiYU2CFrT4VHXz_L-28" target="8pwKLiYU2CFrT4VHXz_L-26">
          <mxGeometry width="160" relative="1" as="geometry">
            <mxPoint x="690" y="540" as="sourcePoint" />
            <mxPoint x="850" y="540" as="targetPoint" />
          </mxGeometry>
        </mxCell>
        <mxCell id="8pwKLiYU2CFrT4VHXz_L-30" value="&lt;p style=&quot;margin: 0px ; margin-top: 4px ; text-align: center&quot;&gt;&lt;b&gt;Buttons&lt;/b&gt;&lt;/p&gt;&lt;hr size=&quot;1&quot;&gt;&lt;div style=&quot;height: 2px&quot;&gt;Button selection for &lt;br&gt;interface control&lt;/div&gt;" style="verticalAlign=top;align=left;overflow=fill;fontSize=12;fontFamily=Helvetica;html=1;" vertex="1" parent="1">
          <mxGeometry x="980" y="320" width="140" height="60" as="geometry" />
        </mxCell>
        <mxCell id="8pwKLiYU2CFrT4VHXz_L-31" value="1..n" style="endArrow=open;html=1;endSize=12;startArrow=diamondThin;startSize=14;startFill=1;edgeStyle=orthogonalEdgeStyle;align=left;verticalAlign=bottom;rounded=0;" edge="1" parent="1" source="8pwKLiYU2CFrT4VHXz_L-30" target="8pwKLiYU2CFrT4VHXz_L-28">
          <mxGeometry x="-0.25" y="20" relative="1" as="geometry">
            <mxPoint x="1000" y="540" as="sourcePoint" />
            <mxPoint x="1130" y="520" as="targetPoint" />
            <mxPoint as="offset" />
          </mxGeometry>
        </mxCell>
        <mxCell id="8pwKLiYU2CFrT4VHXz_L-32" value="Use" style="endArrow=open;endSize=12;dashed=1;html=1;rounded=0;" edge="1" parent="1" source="8pwKLiYU2CFrT4VHXz_L-12" target="Qk5AwcaiMd-IKgrm0FRC-6">
          <mxGeometry width="160" relative="1" as="geometry">
            <mxPoint x="210" y="550" as="sourcePoint" />
            <mxPoint x="370" y="550" as="targetPoint" />
            <Array as="points">
              <mxPoint x="-50" y="440" />
              <mxPoint x="10" y="680" />
            </Array>
          </mxGeometry>
        </mxCell>
      </root>
    </mxGraphModel>
  </diagram>
  <diagram id="wTmRTHpckSEP5XS3Ps0r" name="Implementation View">
    <mxGraphModel grid="1" page="1" gridSize="10" guides="1" tooltips="1" connect="1" arrows="1" fold="1" pageScale="1" pageWidth="850" pageHeight="1100" math="0" shadow="0">
      <root>
        <mxCell id="0" />
        <mxCell id="1" parent="0" />
        <mxCell id="3862OXp2kpN-SHUQXk15-9" style="edgeStyle=orthogonalEdgeStyle;rounded=0;orthogonalLoop=1;jettySize=auto;html=1;" edge="1" parent="1" source="helDJFvxR6dF6Oh-2x7a-9" target="3862OXp2kpN-SHUQXk15-6">
          <mxGeometry relative="1" as="geometry">
            <Array as="points">
              <mxPoint x="340" y="270" />
              <mxPoint x="340" y="270" />
            </Array>
          </mxGeometry>
        </mxCell>
        <mxCell id="helDJFvxR6dF6Oh-2x7a-9" value="Dash Interface" style="html=1;whiteSpace=wrap;" vertex="1" parent="1">
          <mxGeometry x="280" y="80" width="120" height="50" as="geometry" />
        </mxCell>
        <mxCell id="3862OXp2kpN-SHUQXk15-7" value="" style="edgeStyle=orthogonalEdgeStyle;rounded=0;orthogonalLoop=1;jettySize=auto;html=1;" edge="1" parent="1" source="ALlqzq_I1TZQCWgswMVg-2" target="3862OXp2kpN-SHUQXk15-6">
          <mxGeometry relative="1" as="geometry" />
        </mxCell>
        <mxCell id="ALlqzq_I1TZQCWgswMVg-2" value="Model" style="html=1;whiteSpace=wrap;" vertex="1" parent="1">
          <mxGeometry x="515" y="310" width="120" height="50" as="geometry" />
        </mxCell>
        <mxCell id="3862OXp2kpN-SHUQXk15-10" style="edgeStyle=orthogonalEdgeStyle;rounded=0;orthogonalLoop=1;jettySize=auto;html=1;" edge="1" parent="1" source="3862OXp2kpN-SHUQXk15-1" target="3862OXp2kpN-SHUQXk15-6">
          <mxGeometry relative="1" as="geometry">
            <Array as="points">
              <mxPoint x="500" y="185" />
              <mxPoint x="360" y="185" />
            </Array>
          </mxGeometry>
        </mxCell>
        <mxCell id="pAvTiLFIfYA4sKQeDvGq-10" style="edgeStyle=orthogonalEdgeStyle;rounded=0;orthogonalLoop=1;jettySize=auto;html=1;entryX=0;entryY=0.5;entryDx=0;entryDy=0;" edge="1" parent="1" source="3862OXp2kpN-SHUQXk15-1" target="pAvTiLFIfYA4sKQeDvGq-4">
          <mxGeometry relative="1" as="geometry" />
        </mxCell>
        <mxCell id="3862OXp2kpN-SHUQXk15-1" value="Wireshark-based&lt;br&gt;Network Scraper" style="html=1;whiteSpace=wrap;" vertex="1" parent="1">
          <mxGeometry x="440" y="80" width="120" height="50" as="geometry" />
        </mxCell>
        <mxCell id="3862OXp2kpN-SHUQXk15-5" value="Stores scanned packets" style="text;html=1;align=center;verticalAlign=middle;resizable=0;points=[];autosize=1;strokeColor=none;fillColor=none;" vertex="1" parent="1">
          <mxGeometry x="360" y="190" width="150" height="30" as="geometry" />
        </mxCell>
        <mxCell id="pAvTiLFIfYA4sKQeDvGq-14" value="" style="edgeStyle=orthogonalEdgeStyle;rounded=0;orthogonalLoop=1;jettySize=auto;html=1;" edge="1" parent="1" source="3862OXp2kpN-SHUQXk15-6" target="pAvTiLFIfYA4sKQeDvGq-12">
          <mxGeometry relative="1" as="geometry" />
        </mxCell>
        <mxCell id="3862OXp2kpN-SHUQXk15-6" value="Data Loader" style="html=1;whiteSpace=wrap;" vertex="1" parent="1">
          <mxGeometry x="275" y="310" width="120" height="50" as="geometry" />
        </mxCell>
        <mxCell id="3862OXp2kpN-SHUQXk15-8" value="Reads &amp;amp; classifies&lt;br&gt;packets" style="text;html=1;align=center;verticalAlign=middle;resizable=0;points=[];autosize=1;strokeColor=none;fillColor=none;" vertex="1" parent="1">
          <mxGeometry x="420" y="290" width="120" height="40" as="geometry" />
        </mxCell>
        <mxCell id="pAvTiLFIfYA4sKQeDvGq-1" value="client" style="shape=umlFrame;whiteSpace=wrap;html=1;pointerEvents=0;" vertex="1" parent="1">
          <mxGeometry x="220" y="30" width="460" height="140" as="geometry" />
        </mxCell>
        <mxCell id="pAvTiLFIfYA4sKQeDvGq-16" style="edgeStyle=orthogonalEdgeStyle;rounded=0;orthogonalLoop=1;jettySize=auto;html=1;entryX=0.75;entryY=1;entryDx=0;entryDy=0;" edge="1" parent="1" source="pAvTiLFIfYA4sKQeDvGq-2" target="pAvTiLFIfYA4sKQeDvGq-4">
          <mxGeometry relative="1" as="geometry" />
        </mxCell>
        <mxCell id="pAvTiLFIfYA4sKQeDvGq-2" value="server" style="shape=umlFrame;whiteSpace=wrap;html=1;pointerEvents=0;" vertex="1" parent="1">
          <mxGeometry x="220" y="220" width="460" height="250" as="geometry" />
        </mxCell>
        <mxCell id="pAvTiLFIfYA4sKQeDvGq-3" value="Reads packets &lt;br&gt;&amp;amp; classifications" style="text;html=1;align=center;verticalAlign=middle;resizable=0;points=[];autosize=1;strokeColor=none;fillColor=none;" vertex="1" parent="1">
          <mxGeometry x="230" y="180" width="110" height="40" as="geometry" />
        </mxCell>
        <mxCell id="pAvTiLFIfYA4sKQeDvGq-4" value="Network" style="html=1;whiteSpace=wrap;" vertex="1" parent="1">
          <mxGeometry x="720" y="80" width="120" height="50" as="geometry" />
        </mxCell>
        <mxCell id="pAvTiLFIfYA4sKQeDvGq-11" value="Scans for packets" style="text;html=1;align=center;verticalAlign=middle;resizable=0;points=[];autosize=1;strokeColor=none;fillColor=none;" vertex="1" parent="1">
          <mxGeometry x="560" y="80" width="120" height="30" as="geometry" />
        </mxCell>
        <mxCell id="pAvTiLFIfYA4sKQeDvGq-12" value="PostgreSQL Database" style="html=1;whiteSpace=wrap;" vertex="1" parent="1">
          <mxGeometry x="275" y="400" width="120" height="50" as="geometry" />
        </mxCell>
        <mxCell id="pAvTiLFIfYA4sKQeDvGq-15" value="Stores &amp;amp; retrieves&lt;br&gt;packet data" style="text;html=1;align=center;verticalAlign=middle;resizable=0;points=[];autosize=1;strokeColor=none;fillColor=none;" vertex="1" parent="1">
          <mxGeometry x="225" y="365" width="120" height="40" as="geometry" />
        </mxCell>
        <mxCell id="pAvTiLFIfYA4sKQeDvGq-17" style="edgeStyle=orthogonalEdgeStyle;rounded=0;orthogonalLoop=1;jettySize=auto;html=1;entryX=0.5;entryY=1;entryDx=0;entryDy=0;" edge="1" parent="1" source="pAvTiLFIfYA4sKQeDvGq-1" target="pAvTiLFIfYA4sKQeDvGq-4">
          <mxGeometry relative="1" as="geometry">
            <Array as="points">
              <mxPoint x="700" y="140" />
              <mxPoint x="700" y="170" />
              <mxPoint x="780" y="170" />
            </Array>
          </mxGeometry>
        </mxCell>
        <mxCell id="pAvTiLFIfYA4sKQeDvGq-18" value="Serve client" style="text;html=1;align=center;verticalAlign=middle;resizable=0;points=[];autosize=1;strokeColor=none;fillColor=none;" vertex="1" parent="1">
          <mxGeometry x="695" y="170" width="90" height="30" as="geometry" />
        </mxCell>
        <mxCell id="pAvTiLFIfYA4sKQeDvGq-19" value="Serve server" style="text;html=1;align=center;verticalAlign=middle;resizable=0;points=[];autosize=1;strokeColor=none;fillColor=none;" vertex="1" parent="1">
          <mxGeometry x="695" y="300" width="90" height="30" as="geometry" />
        </mxCell>
        <mxCell id="pAvTiLFIfYA4sKQeDvGq-20" value="DataCollector" style="shape=umlFrame;whiteSpace=wrap;html=1;pointerEvents=0;" vertex="1" parent="1">
          <mxGeometry x="235" y="270" width="190" height="190" as="geometry" />
        </mxCell>
      </root>
    </mxGraphModel>
  </diagram>
</mxfile>
